<mxfile host="app.diagrams.net" modified="2020-10-26T08:58:05.188Z" agent="5.0 (Macintosh; Intel Mac OS X 10_15_7) AppleWebKit/537.36 (KHTML, like Gecko) Chrome/86.0.4240.111 Safari/537.36 Edg/86.0.622.51" etag="KfQcAbBYNKqDerGApnaz" version="13.8.2" type="github">
  <diagram id="C5RBs43oDa-KdzZeNtuy" name="Page-1">
    <mxGraphModel dx="946" dy="623" grid="1" gridSize="10" guides="1" tooltips="1" connect="1" arrows="1" fold="1" page="1" pageScale="1" pageWidth="827" pageHeight="1169" math="0" shadow="0">
      <root>
        <mxCell id="WIyWlLk6GJQsqaUBKTNV-0" />
        <mxCell id="WIyWlLk6GJQsqaUBKTNV-1" parent="WIyWlLk6GJQsqaUBKTNV-0" />
        <mxCell id="WIyWlLk6GJQsqaUBKTNV-2" value="" style="rounded=0;html=1;jettySize=auto;orthogonalLoop=1;fontSize=11;endArrow=block;endFill=0;endSize=8;strokeWidth=1;shadow=0;labelBackgroundColor=none;edgeStyle=orthogonalEdgeStyle;fontFamily=Helvetica;" parent="WIyWlLk6GJQsqaUBKTNV-1" source="WIyWlLk6GJQsqaUBKTNV-3" target="WIyWlLk6GJQsqaUBKTNV-6" edge="1">
          <mxGeometry relative="1" as="geometry" />
        </mxCell>
        <mxCell id="WIyWlLk6GJQsqaUBKTNV-3" value="start&lt;br&gt;" style="rounded=1;whiteSpace=wrap;html=1;fontSize=12;glass=0;strokeWidth=1;shadow=0;fontFamily=Helvetica;" parent="WIyWlLk6GJQsqaUBKTNV-1" vertex="1">
          <mxGeometry x="160" y="20" width="120" height="40" as="geometry" />
        </mxCell>
        <mxCell id="WIyWlLk6GJQsqaUBKTNV-4" value="Yes" style="rounded=0;html=1;jettySize=auto;orthogonalLoop=1;fontSize=11;endArrow=block;endFill=0;endSize=8;strokeWidth=1;shadow=0;labelBackgroundColor=none;edgeStyle=orthogonalEdgeStyle;fontFamily=Helvetica;" parent="WIyWlLk6GJQsqaUBKTNV-1" source="WIyWlLk6GJQsqaUBKTNV-6" target="WIyWlLk6GJQsqaUBKTNV-10" edge="1">
          <mxGeometry y="20" relative="1" as="geometry">
            <mxPoint as="offset" />
          </mxGeometry>
        </mxCell>
        <mxCell id="WIyWlLk6GJQsqaUBKTNV-5" value="No" style="edgeStyle=orthogonalEdgeStyle;rounded=0;html=1;jettySize=auto;orthogonalLoop=1;fontSize=11;endArrow=block;endFill=0;endSize=8;strokeWidth=1;shadow=0;labelBackgroundColor=none;fontFamily=Helvetica;" parent="WIyWlLk6GJQsqaUBKTNV-1" source="WIyWlLk6GJQsqaUBKTNV-6" target="WIyWlLk6GJQsqaUBKTNV-7" edge="1">
          <mxGeometry y="10" relative="1" as="geometry">
            <mxPoint as="offset" />
          </mxGeometry>
        </mxCell>
        <mxCell id="WIyWlLk6GJQsqaUBKTNV-6" value="签到开关是否开启" style="rhombus;whiteSpace=wrap;html=1;shadow=0;fontFamily=Helvetica;fontSize=12;align=center;strokeWidth=1;spacing=6;spacingTop=-4;" parent="WIyWlLk6GJQsqaUBKTNV-1" vertex="1">
          <mxGeometry x="170" y="110" width="100" height="80" as="geometry" />
        </mxCell>
        <mxCell id="WIyWlLk6GJQsqaUBKTNV-7" value="返回配置选项" style="rounded=1;whiteSpace=wrap;html=1;fontSize=12;glass=0;strokeWidth=1;shadow=0;fontFamily=Helvetica;" parent="WIyWlLk6GJQsqaUBKTNV-1" vertex="1">
          <mxGeometry x="320" y="130" width="120" height="40" as="geometry" />
        </mxCell>
        <mxCell id="WIyWlLk6GJQsqaUBKTNV-8" value="No" style="rounded=0;html=1;jettySize=auto;orthogonalLoop=1;fontSize=11;endArrow=block;endFill=0;endSize=8;strokeWidth=1;shadow=0;labelBackgroundColor=none;edgeStyle=orthogonalEdgeStyle;fontFamily=Helvetica;" parent="WIyWlLk6GJQsqaUBKTNV-1" source="WIyWlLk6GJQsqaUBKTNV-10" target="WIyWlLk6GJQsqaUBKTNV-11" edge="1">
          <mxGeometry x="0.3333" y="20" relative="1" as="geometry">
            <mxPoint as="offset" />
          </mxGeometry>
        </mxCell>
        <mxCell id="WIyWlLk6GJQsqaUBKTNV-9" value="Yes" style="edgeStyle=orthogonalEdgeStyle;rounded=0;html=1;jettySize=auto;orthogonalLoop=1;fontSize=11;endArrow=block;endFill=0;endSize=8;strokeWidth=1;shadow=0;labelBackgroundColor=none;fontFamily=Helvetica;" parent="WIyWlLk6GJQsqaUBKTNV-1" source="WIyWlLk6GJQsqaUBKTNV-10" target="WIyWlLk6GJQsqaUBKTNV-12" edge="1">
          <mxGeometry y="10" relative="1" as="geometry">
            <mxPoint as="offset" />
          </mxGeometry>
        </mxCell>
        <mxCell id="WIyWlLk6GJQsqaUBKTNV-10" value="是否已签到" style="rhombus;whiteSpace=wrap;html=1;shadow=0;fontFamily=Helvetica;fontSize=12;align=center;strokeWidth=1;spacing=6;spacingTop=-4;" parent="WIyWlLk6GJQsqaUBKTNV-1" vertex="1">
          <mxGeometry x="170" y="230" width="100" height="80" as="geometry" />
        </mxCell>
        <mxCell id="fIsxS516P9skwM9xrn3t-10" value="" style="edgeStyle=orthogonalEdgeStyle;rounded=0;orthogonalLoop=1;jettySize=auto;html=1;fontFamily=Helvetica;" edge="1" parent="WIyWlLk6GJQsqaUBKTNV-1" source="WIyWlLk6GJQsqaUBKTNV-11" target="fIsxS516P9skwM9xrn3t-9">
          <mxGeometry relative="1" as="geometry" />
        </mxCell>
        <mxCell id="WIyWlLk6GJQsqaUBKTNV-11" value="计算连续签到天数，签到逻辑" style="rounded=1;whiteSpace=wrap;html=1;fontSize=12;glass=0;strokeWidth=1;shadow=0;fontFamily=Helvetica;" parent="WIyWlLk6GJQsqaUBKTNV-1" vertex="1">
          <mxGeometry x="160" y="370" width="120" height="40" as="geometry" />
        </mxCell>
        <mxCell id="WIyWlLk6GJQsqaUBKTNV-12" value="返回签到提示信息" style="rounded=1;whiteSpace=wrap;html=1;fontSize=12;glass=0;strokeWidth=1;shadow=0;fontFamily=Helvetica;" parent="WIyWlLk6GJQsqaUBKTNV-1" vertex="1">
          <mxGeometry x="320" y="250" width="120" height="40" as="geometry" />
        </mxCell>
        <mxCell id="fIsxS516P9skwM9xrn3t-4" value="" style="edgeStyle=orthogonalEdgeStyle;rounded=0;orthogonalLoop=1;jettySize=auto;html=1;fontFamily=Helvetica;" edge="1" parent="WIyWlLk6GJQsqaUBKTNV-1" source="fIsxS516P9skwM9xrn3t-0" target="fIsxS516P9skwM9xrn3t-3">
          <mxGeometry relative="1" as="geometry" />
        </mxCell>
        <mxCell id="fIsxS516P9skwM9xrn3t-22" value="是" style="edgeLabel;html=1;align=center;verticalAlign=middle;resizable=0;points=[];fontFamily=Helvetica;" vertex="1" connectable="0" parent="fIsxS516P9skwM9xrn3t-4">
          <mxGeometry x="-0.2471" y="1" relative="1" as="geometry">
            <mxPoint as="offset" />
          </mxGeometry>
        </mxCell>
        <mxCell id="fIsxS516P9skwM9xrn3t-6" value="" style="edgeStyle=orthogonalEdgeStyle;rounded=0;orthogonalLoop=1;jettySize=auto;html=1;fontFamily=Helvetica;" edge="1" parent="WIyWlLk6GJQsqaUBKTNV-1" source="fIsxS516P9skwM9xrn3t-0" target="fIsxS516P9skwM9xrn3t-5">
          <mxGeometry relative="1" as="geometry" />
        </mxCell>
        <mxCell id="fIsxS516P9skwM9xrn3t-0" value="连续签到&amp;gt;=30" style="rhombus;whiteSpace=wrap;html=1;fontFamily=Helvetica;" vertex="1" parent="WIyWlLk6GJQsqaUBKTNV-1">
          <mxGeometry x="180" y="600" width="80" height="80" as="geometry" />
        </mxCell>
        <mxCell id="fIsxS516P9skwM9xrn3t-3" value="发放奖品&lt;br&gt;保存发放记录" style="rounded=1;whiteSpace=wrap;html=1;fontFamily=Helvetica;" vertex="1" parent="WIyWlLk6GJQsqaUBKTNV-1">
          <mxGeometry x="350" y="617.5" width="110" height="45" as="geometry" />
        </mxCell>
        <mxCell id="fIsxS516P9skwM9xrn3t-14" value="" style="edgeStyle=orthogonalEdgeStyle;rounded=0;orthogonalLoop=1;jettySize=auto;html=1;fontFamily=Helvetica;" edge="1" parent="WIyWlLk6GJQsqaUBKTNV-1" source="fIsxS516P9skwM9xrn3t-5" target="fIsxS516P9skwM9xrn3t-7">
          <mxGeometry relative="1" as="geometry" />
        </mxCell>
        <mxCell id="fIsxS516P9skwM9xrn3t-21" value="是" style="edgeLabel;html=1;align=center;verticalAlign=middle;resizable=0;points=[];fontFamily=Helvetica;" vertex="1" connectable="0" parent="fIsxS516P9skwM9xrn3t-14">
          <mxGeometry x="-0.2222" y="-4" relative="1" as="geometry">
            <mxPoint as="offset" />
          </mxGeometry>
        </mxCell>
        <mxCell id="fIsxS516P9skwM9xrn3t-18" value="" style="edgeStyle=orthogonalEdgeStyle;rounded=0;orthogonalLoop=1;jettySize=auto;html=1;fontFamily=Helvetica;" edge="1" parent="WIyWlLk6GJQsqaUBKTNV-1" source="fIsxS516P9skwM9xrn3t-5" target="fIsxS516P9skwM9xrn3t-17">
          <mxGeometry relative="1" as="geometry" />
        </mxCell>
        <mxCell id="fIsxS516P9skwM9xrn3t-5" value="连续签到&amp;gt;=15" style="rhombus;whiteSpace=wrap;html=1;fontFamily=Helvetica;" vertex="1" parent="WIyWlLk6GJQsqaUBKTNV-1">
          <mxGeometry x="180" y="710" width="80" height="80" as="geometry" />
        </mxCell>
        <mxCell id="fIsxS516P9skwM9xrn3t-7" value="发放奖品&lt;br&gt;保存发放记录" style="rounded=1;whiteSpace=wrap;html=1;fontFamily=Helvetica;" vertex="1" parent="WIyWlLk6GJQsqaUBKTNV-1">
          <mxGeometry x="355" y="735" width="100" height="30" as="geometry" />
        </mxCell>
        <mxCell id="fIsxS516P9skwM9xrn3t-13" value="" style="edgeStyle=orthogonalEdgeStyle;rounded=0;orthogonalLoop=1;jettySize=auto;html=1;fontFamily=Helvetica;" edge="1" parent="WIyWlLk6GJQsqaUBKTNV-1" source="fIsxS516P9skwM9xrn3t-8" target="fIsxS516P9skwM9xrn3t-0">
          <mxGeometry relative="1" as="geometry" />
        </mxCell>
        <mxCell id="fIsxS516P9skwM9xrn3t-8" value="写入redis" style="rounded=1;whiteSpace=wrap;html=1;fontFamily=Helvetica;" vertex="1" parent="WIyWlLk6GJQsqaUBKTNV-1">
          <mxGeometry x="165" y="505" width="110" height="40" as="geometry" />
        </mxCell>
        <mxCell id="fIsxS516P9skwM9xrn3t-12" value="" style="edgeStyle=orthogonalEdgeStyle;rounded=0;orthogonalLoop=1;jettySize=auto;html=1;fontFamily=Helvetica;" edge="1" parent="WIyWlLk6GJQsqaUBKTNV-1" source="fIsxS516P9skwM9xrn3t-9" target="fIsxS516P9skwM9xrn3t-8">
          <mxGeometry relative="1" as="geometry" />
        </mxCell>
        <mxCell id="fIsxS516P9skwM9xrn3t-9" value="写入mongodb" style="rounded=1;whiteSpace=wrap;html=1;fontFamily=Helvetica;" vertex="1" parent="WIyWlLk6GJQsqaUBKTNV-1">
          <mxGeometry x="160" y="440" width="120" height="35" as="geometry" />
        </mxCell>
        <mxCell id="fIsxS516P9skwM9xrn3t-20" value="" style="edgeStyle=orthogonalEdgeStyle;rounded=0;orthogonalLoop=1;jettySize=auto;html=1;fontFamily=Helvetica;" edge="1" parent="WIyWlLk6GJQsqaUBKTNV-1" source="fIsxS516P9skwM9xrn3t-17" target="fIsxS516P9skwM9xrn3t-19">
          <mxGeometry relative="1" as="geometry" />
        </mxCell>
        <mxCell id="fIsxS516P9skwM9xrn3t-23" value="是" style="edgeLabel;html=1;align=center;verticalAlign=middle;resizable=0;points=[];fontFamily=Helvetica;" vertex="1" connectable="0" parent="fIsxS516P9skwM9xrn3t-20">
          <mxGeometry x="-0.2211" y="-3" relative="1" as="geometry">
            <mxPoint as="offset" />
          </mxGeometry>
        </mxCell>
        <mxCell id="fIsxS516P9skwM9xrn3t-340" value="" style="edgeStyle=orthogonalEdgeStyle;rounded=0;orthogonalLoop=1;jettySize=auto;html=1;fontFamily=Helvetica;" edge="1" parent="WIyWlLk6GJQsqaUBKTNV-1" source="fIsxS516P9skwM9xrn3t-17" target="fIsxS516P9skwM9xrn3t-31">
          <mxGeometry relative="1" as="geometry" />
        </mxCell>
        <mxCell id="fIsxS516P9skwM9xrn3t-17" value="连续签到&amp;gt;=7" style="rhombus;whiteSpace=wrap;html=1;fontFamily=Helvetica;" vertex="1" parent="WIyWlLk6GJQsqaUBKTNV-1">
          <mxGeometry x="180" y="830" width="80" height="80" as="geometry" />
        </mxCell>
        <mxCell id="fIsxS516P9skwM9xrn3t-19" value="发放奖品&lt;br&gt;保存发放记录" style="rounded=1;whiteSpace=wrap;html=1;fontFamily=Helvetica;" vertex="1" parent="WIyWlLk6GJQsqaUBKTNV-1">
          <mxGeometry x="358" y="855" width="100" height="30" as="geometry" />
        </mxCell>
        <mxCell id="fIsxS516P9skwM9xrn3t-342" value="" style="edgeStyle=orthogonalEdgeStyle;rounded=0;orthogonalLoop=1;jettySize=auto;html=1;fontFamily=Helvetica;" edge="1" parent="WIyWlLk6GJQsqaUBKTNV-1" source="fIsxS516P9skwM9xrn3t-31" target="fIsxS516P9skwM9xrn3t-341">
          <mxGeometry relative="1" as="geometry" />
        </mxCell>
        <mxCell id="fIsxS516P9skwM9xrn3t-345" value="是" style="edgeLabel;html=1;align=center;verticalAlign=middle;resizable=0;points=[];fontFamily=Helvetica;" vertex="1" connectable="0" parent="fIsxS516P9skwM9xrn3t-342">
          <mxGeometry x="-0.2449" y="1" relative="1" as="geometry">
            <mxPoint as="offset" />
          </mxGeometry>
        </mxCell>
        <mxCell id="fIsxS516P9skwM9xrn3t-344" value="" style="edgeStyle=orthogonalEdgeStyle;rounded=0;orthogonalLoop=1;jettySize=auto;html=1;fontFamily=Helvetica;" edge="1" parent="WIyWlLk6GJQsqaUBKTNV-1" source="fIsxS516P9skwM9xrn3t-31" target="fIsxS516P9skwM9xrn3t-343">
          <mxGeometry relative="1" as="geometry" />
        </mxCell>
        <mxCell id="fIsxS516P9skwM9xrn3t-31" value="连续签到&amp;gt;=6" style="rhombus;whiteSpace=wrap;html=1;fontFamily=Helvetica;" vertex="1" parent="WIyWlLk6GJQsqaUBKTNV-1">
          <mxGeometry x="180" y="940" width="80" height="80" as="geometry" />
        </mxCell>
        <mxCell id="fIsxS516P9skwM9xrn3t-341" value="发放奖品&lt;br&gt;保存发放记录" style="rounded=1;whiteSpace=wrap;html=1;fontFamily=Helvetica;" vertex="1" parent="WIyWlLk6GJQsqaUBKTNV-1">
          <mxGeometry x="358" y="964.5" width="106" height="31" as="geometry" />
        </mxCell>
        <mxCell id="fIsxS516P9skwM9xrn3t-343" value="end" style="whiteSpace=wrap;html=1;" vertex="1" parent="WIyWlLk6GJQsqaUBKTNV-1">
          <mxGeometry x="155" y="1079" width="130" height="30" as="geometry" />
        </mxCell>
      </root>
    </mxGraphModel>
  </diagram>
</mxfile>
